<svg width="16" height="16" viewBox="0 0 16 16" fill="none" xmlns="http://www.w3.org/2000/svg">
<path d="M11.933 11.5934C11.7597 11.06 11.2597 10.6667 10.6663 10.6667H9.99967V8.66671C9.99967 8.4899 9.92944 8.32033 9.80441 8.1953C9.67939 8.07028 9.50982 8.00004 9.33301 8.00004H5.33301V6.66671H6.66634C6.84315 6.66671 7.01272 6.59647 7.13775 6.47144C7.26277 6.34642 7.33301 6.17685 7.33301 6.00004V4.66671H8.66634C9.01996 4.66671 9.3591 4.52623 9.60915 4.27618C9.8592 4.02613 9.99967 3.687 9.99967 3.33337V3.06004C11.953 3.84671 13.333 5.76004 13.333 8.00004C13.333 9.38671 12.7997 10.6467 11.933 11.5934ZM7.33301 13.2867C4.69967 12.96 2.66634 10.72 2.66634 8.00004C2.66634 7.58671 2.71967 7.18671 2.80634 6.80671L5.99967 10V10.6667C5.99967 11.0203 6.14015 11.3595 6.3902 11.6095C6.64025 11.8596 6.97939 12 7.33301 12M7.99967 1.33337C7.1242 1.33337 6.25729 1.50581 5.44845 1.84084C4.63961 2.17588 3.90469 2.66694 3.28563 3.286C2.03539 4.53624 1.33301 6.23193 1.33301 8.00004C1.33301 9.76815 2.03539 11.4638 3.28563 12.7141C3.90469 13.3331 4.63961 13.8242 5.44845 14.1592C6.25729 14.4943 7.1242 14.6667 7.99967 14.6667C9.76778 14.6667 11.4635 13.9643 12.7137 12.7141C13.964 11.4638 14.6663 9.76815 14.6663 8.00004C14.6663 7.12456 14.4939 6.25765 14.1589 5.44882C13.8238 4.63998 13.3328 3.90505 12.7137 3.286C12.0947 2.66694 11.3597 2.17588 10.5509 1.84084C9.74206 1.50581 8.87515 1.33337 7.99967 1.33337Z" fill="#929292"/>
</svg>
